HIERARCHY
ROOT Hips
{
	OFFSET 0.000000 0.000000 0.000000 
	CHANNELS 6 Xposition Yposition Zposition Yrotation Zrotation Xrotation 
	JOINT Lumbar
	{
		OFFSET 0.000000 0.000000 0.000000 
		CHANNELS 3 Zrotation Xrotation Yrotation
		JOINT Neck
		{
			OFFSET 0.000000 0.445665 0.000000 
			CHANNELS 3 Zrotation Xrotation Yrotation
			End Site
			{
				OFFSET 0.000000 0.227535 0.000000 
			}
		}
		JOINT RightShoulder
		{
			OFFSET 0.019635 0.377685 0.194865 
			CHANNELS 3 Zrotation Xrotation Yrotation
			JOINT RightElbow
			{
				OFFSET 0.000000 -0.243375 0.000000 
				CHANNELS 2 Zrotation Yrotation
				JOINT RightWrist
				{
					OFFSET 0.000000 -0.264825 0.000000 
					CHANNELS 2 Zrotation Xrotation
					End Site
					{
						OFFSET 0.006600 -0.176220 0.000990 
					}
				}
			}
		}
		JOINT LeftShoulder
		{
			OFFSET 0.019635 0.377685 -0.194865 
			CHANNELS 3 Zrotation Xrotation Yrotation
			JOINT LeftElbow
			{
				OFFSET 0.000000 -0.243375 0.000000 
				CHANNELS 2 Zrotation Yrotation
				JOINT LeftWrist
				{
					OFFSET 0.000000 -0.264825 0.000000 
					CHANNELS 2 Zrotation Xrotation
					End Site
					{
						OFFSET 0.006600 -0.176220 -0.000990 
					}
				}
			}
		}
	}
	JOINT RightHip
	{
		OFFSET 0.052140 -0.069960 0.075570 
		CHANNELS 3 Zrotation Xrotation Yrotation
		JOINT RightKnee
		{
			OFFSET 0.000000 -0.402270 0.000000 
			CHANNELS 1 Zrotation
			JOINT RightAnkle
			{
				OFFSET 0.000000 -0.404085 0.000000 
				CHANNELS 3 Zrotation Xrotation Yrotation
				End Site
				{
					OFFSET 0.204105 -0.089430 0.008415 
				}
			}
		}
	}
	JOINT LeftHip
	{
		OFFSET 0.052140 -0.069960 -0.075570 
		CHANNELS 3 Zrotation Xrotation Yrotation
		JOINT LeftKnee
		{
			OFFSET 0.000000 -0.402270 0.000000 
			CHANNELS 1 Zrotation
			JOINT LeftAnkle
			{
				OFFSET 0.000000 -0.404085 0.000000 
				CHANNELS 3 Zrotation Xrotation Yrotation
				End Site
				{
					OFFSET 0.204105 -0.089430 -0.008415 
				}
			}
		}
	}
}
MOTION
Frames: 16
Frame Time: 0.02
0.56467 -0.1586 -0.40846 750.9453 -8.83093 -5.7341 22.52402 0.36331 -5.21952 -4.76052 -1.99271 -2.11994 166.38694 -171.25707 -87.14687 134.3013 147.81518 -75.22924 -21.88586 166.38692 146.1045 87.14685 91.1285 -69.14569 -75.22909 21.88451 87.75276 -10.4067 -4.34143 -81.71956 -8.98241 0.08438 -2.29879 89.31033 12.45084 2.28125 -77.24679 -9.98475 0.72152 2.74468
0.56432 -0.1589 -0.40812 750.87329 -8.83614 -5.69143 22.49677 0.30266 -4.94065 -5.03898 -1.62582 -2.11994 166.38694 -171.25708 -87.14687 134.30131 148.03272 -75.22926 -21.88612 166.38692 146.96868 87.14685 87.2104 -69.13388 -75.22909 21.88455 87.70501 -10.42851 -4.2879 -81.64455 -8.91858 0.09649 -2.2928 89.35858 12.13665 1.80158 -77.45623 -9.74312 0.87366 2.81341
0.56394 -0.15938 -0.4077 750.78311 -8.82241 -5.65293 22.44705 0.25079 -4.54938 -5.36908 -1.19671 -2.11994 166.38694 -171.25708 -87.14687 134.3013 147.99895 -75.22924 -21.88592 166.38692 148.10209 87.14684 83.53563 -69.09847 -75.2291 21.88459 87.58994 -10.42072 -4.42284 -81.57772 -8.78199 0.05093 -2.31289 89.45089 11.79904 1.39524 -77.80778 -9.45904 1.10991 2.92235
0.56358 -0.15977 -0.40734 750.70513 -8.81299 -5.61346 22.40467 0.19824 -4.21378 -5.67379 -0.79962 -2.11994 166.38694 -171.25708 -87.14687 134.30131 148.07341 -75.22925 -21.88595 166.38692 149.09937 87.14684 79.82986 -69.07673 -75.2291 21.88462 87.50395 -10.42867 -4.46194 -81.51627 -8.67334 0.02635 -2.32326 89.51483 11.49241 0.97979 -78.09214 -9.19547 1.30864 3.01307
0.56318 -0.16019 -0.4069 750.61169 -8.82026 -5.57033 22.37321 0.13188 -3.85861 -5.99123 -0.38621 -2.11994 166.38694 -171.25708 -87.14687 134.30131 148.14723 -75.22925 -21.88595 166.38692 150.1628 87.14684 75.78469 -69.0435 -75.22911 21.88466 87.4226 -10.42734 -4.54086 -81.4144 -8.58601 0.02387 -2.32459 89.60992 11.0977 0.4607 -78.38368 -8.92485 1.50642 3.10446
0.56286 -0.16058 -0.4066 750.54575 -8.78887 -5.53574 22.31418 0.09624 -3.5171 -6.29275 0.00743 -2.11994 166.38694 -171.25708 -87.14687 134.30131 148.17181 -75.22924 -21.88588 166.38692 151.15099 87.14684 72.50224 -69.02741 -75.22911 21.8847 87.31614 -10.43808 -4.58355 -81.39968 -8.43765 -0.03806 -2.35086 89.65224 10.88002 0.17372 -78.69573 -8.65964 1.72469 3.20334
0.56277 -0.16087 -0.40672 750.55933 -8.65496 -5.52331 22.18396 0.14402 -3.24695 -6.53596 0.33563 -2.11994 166.38694 -171.25708 -87.14687 134.30131 148.13225 -75.22925 -21.88599 166.38692 151.84277 87.14684 71.31116 -69.07504 -75.22911 21.88472 87.15861 -10.49052 -4.47125 -81.62067 -8.13189 -0.25352 -2.44098 89.53718 11.17856 0.53098 -79.02643 -8.41909 1.98742 3.31698
0.56276 -0.16112 -0.40699 750.60114 -8.48323 -5.51936 22.02712 0.22222 -2.99359 -6.76062 0.64088 -2.11994 166.38694 -171.25708 -87.14687 134.30131 148.05377 -75.22925 -21.886 166.38692 152.45099 87.14684 70.87415 -69.13904 -75.22911 21.88474 86.97825 -10.55599 -4.31818 -81.92975 -7.7685 -0.52608 -2.55503 89.36837 11.65271 1.11578 -79.37384 -8.18595 2.26613 3.43598
0.56272 -0.16137 -0.40718 750.6305 -8.32906 -5.51172 21.88291 0.28605 -2.72837 -6.99467 0.95386 -2.11994 166.38694 -171.25708 -87.14687 134.3013 147.99011 -75.22924 -21.88589 166.38692 153.11276 87.14684 70.06074 -69.18819 -75.22912 21.88476 86.80722 -10.61457 -4.18963 -82.20089 -7.43568 -0.7704 -2.65734 89.22509 12.03278 1.58296 -79.71636 -7.94998 2.53174 3.54985
0.56267 -0.16167 -0.4074 750.6579 -8.17194 -5.50351 21.73535 0.35265 -2.47623 -7.22809 1.28076 -2.11994 166.38694 -171.25708 -87.14687 134.30131 147.92905 -75.2293 -21.88646 166.38692 153.72408 87.14684 69.38889 -69.26659 -75.22912 21.88478 86.63752 -10.67571 -4.04142 -82.46408 -7.08146 -1.0269 -2.76443 89.07792 12.47193 2.11272 -80.05287 -7.70977 2.82481 3.67643
0.56265 -0.16187 -0.40761 750.69597 -8.0131 -5.49848 21.58912 0.42039 -2.20338 -7.4558 1.57195 -2.11994 166.38694 -171.25708 -87.14687 134.3013 147.85699 -75.22921 -21.88561 166.38692 154.40989 87.14684 68.60954 -69.28976 -75.22912 21.8848 86.46137 -10.73561 -3.92312 -82.76387 -6.75956 -1.2702 -2.8666 88.92639 12.83042 2.56516 -80.40338 -7.48129 3.06355 3.77739
0.56273 -0.16181 -0.40776 750.75967 -7.85145 -5.49969 21.44972 0.48529 -1.86089 -7.68859 1.77354 -2.11994 166.38691 -171.25706 -87.14684 134.3013 147.7639 -75.22868 -21.88075 166.38692 155.38158 87.14684 67.25101 -69.14371 -75.22912 21.88482 86.26599 -10.78383 -3.88682 -83.14935 -6.53745 -1.46847 -2.95182 88.76857 12.92027 2.74914 -80.79313 -7.27887 3.14635 3.80506
0.56284 -0.16166 -0.40789 750.83273 -7.69077 -5.50386 21.31323 0.54993 -1.49931 -7.91309 1.93889 -2.11994 166.38689 -171.25704 -87.14681 134.30129 147.66246 -75.22799 -21.87447 166.38692 156.41836 87.14684 65.77565 -68.944 -75.22912 21.88483 86.06653 -10.83138 -3.8828 -83.56707 -6.35099 -1.65019 -3.03065 88.6093 12.92365 2.84717 -81.19455 -7.08912 3.17379 3.80676
0.56294 -0.16155 -0.40802 750.89942 -7.53462 -5.50696 21.17783 0.61369 -1.15228 -8.13029 2.11847 -2.11994 166.38687 -171.25703 -87.14678 134.30128 147.5663 -75.22739 -21.86893 166.38692 157.38504 87.14684 64.41638 -68.77733 -75.22913 21.88485 85.8739 -10.88282 -3.87027 -83.96644 -6.1508 -1.83567 -3.11064 88.45544 12.96859 2.98346 -81.58719 -6.89664 3.22752 3.82099
0.56304 -0.16142 -0.4082 750.97563 -7.35643 -5.50924 21.03165 0.68279 -0.78018 -8.39314 2.30734 -2.11994 166.38684 -171.25701 -87.14675 134.30127 147.46234 -75.22675 -21.86308 166.38692 158.52092 87.14684 62.8164 -68.57471 -75.22913 21.88486 85.65955 -10.91987 -3.8314 -84.38604 -5.93772 -2.0391 -3.19885 88.28004 13.00975 3.1303 -81.99625 -6.69131 3.27734 3.83248
0.56314 -0.16131 -0.40826 751.03437 -7.22449 -5.51379 20.90852 0.74025 -0.45656 -8.55975 2.46779 -2.11994 166.38682 -171.25699 -87.14672 134.30127 147.37317 -75.22614 -21.85745 166.38692 159.3198 87.14684 61.68172 -68.43396 -75.22913 21.88487 85.48962 -10.98614 -3.85433 -84.76806 -5.76122 -2.20039 -3.2681 88.14939 13.03637 3.23282 -82.37229 -6.51602 3.32163 3.8433
